<?xml version="1.0" standalone="no"?>
<!DOCTYPE svg PUBLIC "-//W3C//DTD SVG 20010904//EN"
 "http://www.w3.org/TR/2001/REC-SVG-20010904/DTD/svg10.dtd">
<svg version="1.0" xmlns="http://www.w3.org/2000/svg"
 width="382.000000pt" height="382.000000pt" viewBox="0 0 382.000000 382.000000"
 preserveAspectRatio="xMidYMid meet">
<metadata>
Created by potrace 1.14, written by Peter Selinger 2001-2017
</metadata>
<g transform="translate(0.000000,382.000000) scale(0.100000,-0.100000)"
fill="#000000" stroke="none">
<path d="M815 3806 c-414 -65 -731 -380 -800 -796 -11 -69 -14 -271 -14 -1095
0 -578 5 -1040 10 -1080 58 -428 396 -766 824 -824 40 -6 501 -9 1085 -9 833
0 1029 2 1095 14 427 76 743 406 794 831 8 62 11 414 10 1090 -1 1064 -1 1072
-51 1223 -111 341 -406 590 -762 645 -117 18 -2077 18 -2191 1z"/>
</g>
</svg>
